<svg width="24" height="24" viewBox="0 0 24 24" fill="none" xmlns="http://www.w3.org/2000/svg">
<path d="M0 6C0 2.68629 2.68629 0 6 0H18C21.3137 0 24 2.68629 24 6V18C24 21.3137 21.3137 24 18 24H6C2.68629 24 0 21.3137 0 18V6Z" fill="#7F56D9"/>
<path fill-rule="evenodd" clip-rule="evenodd" d="M18.3094 7.09367C18.7 7.4842 18.7 8.11736 18.3094 8.50789L10.6095 16.2079C10.4219 16.3954 10.1676 16.5008 9.90234 16.5008C9.63713 16.5008 9.38277 16.3954 9.19524 16.2079L5.69524 12.7079C5.30471 12.3174 5.30471 11.6842 5.69524 11.2937C6.08576 10.9032 6.71893 10.9032 7.10945 11.2937L9.90234 14.0866L16.8952 7.09367C17.2858 6.70315 17.9189 6.70315 18.3094 7.09367Z" fill="white"/>
</svg>
