<svg width="32" height="68" viewBox="0 0 32 68" fill="none" xmlns="http://www.w3.org/2000/svg">
<g clip-path="url(#clip0_1441_13324)">
<path d="M4 16C4 9.37258 9.37258 4 16 4C22.6274 4 28 9.37258 28 16C28 22.6274 22.6274 28 16 28C9.37258 28 4 22.6274 4 16Z" fill="#9E77ED"/>
<path d="M4.75 16C4.75 9.7868 9.7868 4.75 16 4.75C22.2132 4.75 27.25 9.7868 27.25 16C27.25 22.2132 22.2132 27.25 16 27.25C9.7868 27.25 4.75 22.2132 4.75 16Z" fill="#7F56D9"/>
<path fill-rule="evenodd" clip-rule="evenodd" d="M21.098 11.3897L13.938 18.2997L12.038 16.2697C11.688 15.9397 11.138 15.9197 10.738 16.1997C10.348 16.4897 10.238 16.9997 10.478 17.4097L12.728 21.0697C12.948 21.4097 13.328 21.6197 13.758 21.6197C14.168 21.6197 14.558 21.4097 14.778 21.0697C15.138 20.5997 22.008 12.4097 22.008 12.4097C22.908 11.4897 21.818 10.6797 21.098 11.3797V11.3897Z" fill="white"/>
<path d="M4.75 16C4.75 9.7868 9.7868 4.75 16 4.75C22.2132 4.75 27.25 9.7868 27.25 16C27.25 22.2132 22.2132 27.25 16 27.25C9.7868 27.25 4.75 22.2132 4.75 16Z" stroke="#9E77ED" stroke-width="1.5"/>
</g>
<path d="M15 33C15 32.4477 15.4477 32 16 32C16.5523 32 17 32.4477 17 33V63C17 63.5523 16.5523 64 16 64C15.4477 64 15 63.5523 15 63V33Z" fill="#9E77ED"/>
<defs>
<clipPath id="clip0_1441_13324">
<path d="M4 16C4 9.37258 9.37258 4 16 4C22.6274 4 28 9.37258 28 16C28 22.6274 22.6274 28 16 28C9.37258 28 4 22.6274 4 16Z" fill="white"/>
</clipPath>
</defs>
</svg>
