<svg width="32" height="68" viewBox="0 0 32 68" fill="none" xmlns="http://www.w3.org/2000/svg">
<g clip-path="url(#clip0_1441_13339)">
<path d="M4 16C4 9.37258 9.37258 4 16 4C22.6274 4 28 9.37258 28 16C28 22.6274 22.6274 28 16 28C9.37258 28 4 22.6274 4 16Z" fill="#161B26"/>
<circle cx="16" cy="16" r="4" fill="#61646C"/>
<path d="M4.75 16C4.75 9.7868 9.7868 4.75 16 4.75C22.2132 4.75 27.25 9.7868 27.25 16C27.25 22.2132 22.2132 27.25 16 27.25C9.7868 27.25 4.75 22.2132 4.75 16Z" stroke="#1F242F" stroke-width="1.5"/>
</g>
<defs>
<clipPath id="clip0_1441_13339">
<path d="M4 16C4 9.37258 9.37258 4 16 4C22.6274 4 28 9.37258 28 16C28 22.6274 22.6274 28 16 28C9.37258 28 4 22.6274 4 16Z" fill="white"/>
</clipPath>
</defs>
</svg>
