<svg width="24" height="24" viewBox="0 0 24 24" fill="none" xmlns="http://www.w3.org/2000/svg">
<g clip-path="url(#clip0_1542_1659)">
<path fill-rule="evenodd" clip-rule="evenodd" d="M18 2H6C3.79086 2 2 3.79086 2 6V18C2 20.2091 3.79086 22 6 22H18C20.2091 22 22 20.2091 22 18V6C22 3.79086 20.2091 2 18 2ZM6 0C2.68629 0 0 2.68629 0 6V18C0 21.3137 2.68629 24 6 24H18C21.3137 24 24 21.3137 24 18V6C24 2.68629 21.3137 0 18 0H6Z" fill="#333741"/>
</g>
<path d="M6 0.5H18C21.0376 0.5 23.5 2.96243 23.5 6V18C23.5 21.0376 21.0376 23.5 18 23.5H6C2.96243 23.5 0.5 21.0376 0.5 18V6C0.5 2.96243 2.96243 0.5 6 0.5Z" stroke="#333741"/>
<defs>
<clipPath id="clip0_1542_1659">
<path d="M0 6C0 2.68629 2.68629 0 6 0H18C21.3137 0 24 2.68629 24 6V18C24 21.3137 21.3137 24 18 24H6C2.68629 24 0 21.3137 0 18V6Z" fill="white"/>
</clipPath>
</defs>
</svg>
